# xmcd
#
# Track frame offsets:
#	150
#	725
#	21585
#	40715
#	61420
#	79025
#	92945
#	104965
#	124305
#	141080
#	168920
#	184660
#
# Disc length: 2725 seconds
#
# Revision: 0
# Processed by: cddbd v1.5.1PL0 Copyright (c) Steve Scherf et al.
# Submitted via: EasyCDDAExtractor 4.6.9.1
#
DISCID=a40aa30c
DTITLE=Bramble and Sunderman - Atlanta 2000
DYEAR=2000
DGENRE=country
TTITLE0=blank
TTITLE1=Bahamas to Miami
TTITLE2=Dear Jane
TTITLE3=Highway Song
TTITLE4=Whisper's Mate (Episcipal Chior Version)
TTITLE5=Wind Blows Where It Will
TTITLE6=Reincarnated (In Your Local Liquer Store)
TTITLE7=Captain Doogie
TTITLE8=The Price That We Pay
TTITLE9=Intercoastal Cowboy
TTITLE10=9 to 5 Blues
TTITLE11=Bermuda Run
EXTD=
EXTT0=
EXTT1=
EXTT2=
EXTT3=
EXTT4=
EXTT5=
EXTT6=
EXTT7=
EXTT8=
EXTT9=
EXTT10=
EXTT11=
PLAYORDER=
